<svg width="63" height="61" viewBox="0 0 63 61" fill="none" xmlns="http://www.w3.org/2000/svg">
<g filter="url(#filter0_d_3344_929)">
<path d="M48.3581 0.388876C48.1275 0.236946 47.8174 0.300712 47.6655 0.531302C47.5136 0.761892 47.5773 1.07199 47.8079 1.22392L48.3581 0.388876ZM8.37933 52.1822C8.59036 52.3603 8.90582 52.3336 9.08391 52.1226L11.9861 48.6835C12.1642 48.4725 12.1375 48.157 11.9265 47.9789C11.7154 47.8008 11.4 47.8275 11.2219 48.0386L8.64215 51.0955L5.58521 48.5158C5.37417 48.3377 5.05872 48.3644 4.88062 48.5754C4.70253 48.7865 4.72923 49.1019 4.94027 49.28L8.37933 52.1822ZM47.8079 1.22392C52.2933 4.17925 54.934 6.65291 56.1913 8.76197C56.8151 9.80838 57.0876 10.7472 57.0919 11.6009C57.0962 12.4515 56.8345 13.2567 56.3258 14.0398C55.293 15.6294 53.2644 17.0947 50.5075 18.5395C47.7649 19.9769 44.3782 21.3563 40.7046 22.809C33.3847 25.7034 24.937 28.8811 18.4991 33.3393C12.0462 37.8079 7.50899 43.6376 8.20358 51.8423L9.20001 51.7579C8.54822 44.0587 12.7624 38.5283 19.0684 34.1614C25.3895 29.7841 33.7083 26.6507 41.0723 23.7389C44.7405 22.2884 48.1751 20.8909 50.9717 19.4252C53.7542 17.967 55.9829 16.403 57.1643 14.5846C57.7626 13.6636 58.0973 12.6702 58.0919 11.5959C58.0865 10.5247 57.7433 9.41239 57.0503 8.24992C55.674 5.94121 52.8766 3.36598 48.3581 0.388876L47.8079 1.22392Z" fill="#7D298A"/>
</g>
<defs>
<filter id="filter0_d_3344_929" x="0.762695" y="0.306396" width="61.3293" height="59.9938" filterUnits="userSpaceOnUse" color-interpolation-filters="sRGB">
<feFlood flood-opacity="0" result="BackgroundImageFix"/>
<feColorMatrix in="SourceAlpha" type="matrix" values="0 0 0 0 0 0 0 0 0 0 0 0 0 0 0 0 0 0 127 0" result="hardAlpha"/>
<feOffset dy="4"/>
<feGaussianBlur stdDeviation="2"/>
<feComposite in2="hardAlpha" operator="out"/>
<feColorMatrix type="matrix" values="0 0 0 0 0 0 0 0 0 0 0 0 0 0 0 0 0 0 0.25 0"/>
<feBlend mode="normal" in2="BackgroundImageFix" result="effect1_dropShadow_3344_929"/>
<feBlend mode="normal" in="SourceGraphic" in2="effect1_dropShadow_3344_929" result="shape"/>
</filter>
</defs>
</svg>
